<svg width="150" height="150" viewBox="0 0 150 150" fill="none" xmlns="http://www.w3.org/2000/svg">
<path fill-rule="evenodd" clip-rule="evenodd" d="M150 75C150 116.421 116.421 150 75 150C33.5786 150 0 116.421 0 75C0 33.5786 33.5786 0 75 0C116.421 0 150 33.5786 150 75Z" fill="#4F3DFE"/>
<path d="M36.192 83.24C41.208 83.24 44.4 80.744 44.4 76.664V76.304H40.392V76.664C40.392 78.776 39.192 79.784 36.264 79.784C32.736 79.784 31.416 78.536 31.416 74.96C31.416 71.384 32.736 70.136 36.264 70.136C39.192 70.136 40.392 71.144 40.392 73.256V73.616H44.4V73.256C44.4 69.176 41.184 66.68 36.192 66.68C30.888 66.68 27.6 69.944 27.6 74.96C27.6 79.976 30.888 83.24 36.192 83.24ZM52.368 83.24C56.472 83.24 59.232 80.792 59.232 77C59.232 73.16 56.472 70.736 52.368 70.736C48.264 70.736 45.504 73.16 45.504 77C45.504 80.792 48.264 83.24 52.368 83.24ZM52.368 80.048C49.92 80.048 49.08 79.112 49.08 77C49.08 74.888 49.92 73.904 52.368 73.904C54.792 73.904 55.656 74.888 55.656 77C55.656 79.112 54.792 80.048 52.368 80.048ZM64.3022 83V76.928C64.3022 74.888 65.1182 73.976 67.3982 73.976C69.6062 73.976 70.3982 74.792 70.3982 76.712V83H73.9982V75.512C73.9982 72.848 72.4382 70.736 69.1502 70.736C66.0062 70.736 64.5662 72.656 64.2542 74.672H64.0382V70.976H60.7022V83H64.3022ZM84.2914 83V79.76H82.1314C80.8594 79.76 80.4034 79.448 80.4034 78.248V73.952H84.2914V70.976H80.4034V68.648H76.8034V70.976H74.9074V73.952H76.8034V78.656C76.8034 81.68 78.5074 83 81.3154 83H84.2914ZM89.3357 83.24C91.9997 83.24 93.6797 82.112 94.2317 80.24H94.4237V83H97.7837V75.944C97.7837 72.8 95.8877 70.736 91.8797 70.736C87.9197 70.736 85.4237 72.8 85.4237 75.776V75.848H89.0477V75.752C89.0477 74.384 89.7917 73.904 91.6157 73.904C93.5357 73.904 94.2317 74.336 94.2317 75.896V76.352L89.0717 76.88C86.5037 77.144 85.1837 78.248 85.1837 80.024C85.1837 82.04 86.7437 83.24 89.3357 83.24ZM88.8077 79.784C88.8077 79.208 89.1917 78.968 90.0557 78.896L94.2317 78.416C94.1357 80.12 92.8157 80.696 90.3677 80.696C89.3117 80.696 88.8077 80.432 88.8077 79.784ZM106.016 83.24C109.88 83.24 112.52 81.152 112.52 78.056V77.72H108.944V77.912C108.944 79.448 107.816 80 105.944 80C103.808 80 102.824 79.208 102.824 77C102.824 74.768 103.808 73.976 105.944 73.976C107.816 73.976 108.944 74.528 108.944 76.064V76.256H112.52V75.92C112.52 72.8 109.88 70.736 106.016 70.736C101.888 70.736 99.2484 73.16 99.2484 77C99.2484 80.792 101.888 83.24 106.016 83.24ZM122.541 83V79.76H120.381C119.109 79.76 118.653 79.448 118.653 78.248V73.952H122.541V70.976H118.653V68.648H115.053V70.976H113.157V73.952H115.053V78.656C115.053 81.68 116.757 83 119.565 83H122.541Z" fill="white"/>
</svg>
