<svg width="125" height="125" viewBox="0 0 125 125" fill="none" xmlns="http://www.w3.org/2000/svg">
<circle cx="62.5" cy="62.5" r="62.5" fill="#4F3DFE"/>
<circle cx="62.1495" cy="62.1495" r="34.1495" fill="white"/>
<path d="M62.9062 75.6861V49.2148" stroke="#4F3DFE" stroke-width="2.57732" stroke-linecap="round" stroke-linejoin="round"/>
<path d="M51.3086 65.4844C56.2791 65.4844 62.9065 75.7937 62.9065 75.7937C62.9065 75.7937 69.5339 65.4844 74.5045 65.4844" stroke="#4F3DFE" stroke-width="2.57732" stroke-linecap="round" stroke-linejoin="round"/>
<path d="M18.6022 50.2572L17.4555 50.0557L16.5664 55.1151L14.2967 54.7162L15.1547 49.8342L14.0199 49.6347L13.1619 54.5168L10.9396 54.1262L11.8288 49.0668L10.6821 48.8653L9.56858 55.2013L17.4886 56.5933L18.6022 50.2572Z" fill="white"/>
<path d="M21.3513 42.4699L20.1932 39.6975L20.2309 39.6224L23.158 38.8779L23.8645 37.4733L20.0513 38.4304L19.987 38.398L18.5356 34.793L17.8345 36.1868L18.9712 38.9485L18.9388 39.0128L16.0332 39.768L15.3267 41.1727L19.1077 40.1994L19.1721 40.2318L20.6556 43.853L21.3513 42.4699Z" fill="white"/>
<path d="M29.7222 33.0468L27.0205 30.4887L27.0535 30.4538C28.0116 31.0304 29.12 30.8898 30.0442 29.9137C31.3232 28.5628 31.1183 26.9638 29.7761 25.693C28.434 24.4222 26.8009 24.314 25.5301 25.6561C24.5647 26.6758 24.4751 27.748 25.1118 28.6815L25.0376 28.7599L23.8349 27.6212L23.0179 28.484L28.831 33.988L29.7222 33.0468ZM26.149 29.6635L26.0705 29.5892C25.138 28.7063 25.1964 27.7368 26.1124 26.7694C26.9706 25.863 27.8391 25.644 28.8849 26.6343C29.922 27.6163 29.7677 28.4949 28.8848 29.4275C28.0101 30.3513 27.0379 30.5052 26.149 29.6635Z" fill="white"/>
<path d="M38.6618 22.7927L34.399 15.9741L33.2999 16.6612L37.5627 23.4798L38.6618 22.7927Z" fill="white"/>
<path d="M48.5243 18.3487C50.4248 17.7509 51.3175 16.149 50.7665 14.3972C50.2083 12.6226 48.5629 11.8317 46.6623 12.4295C44.7733 13.0238 43.877 14.6142 44.4352 16.3888C44.9862 18.1405 46.6352 18.9429 48.5243 18.3487ZM48.1785 17.2496C46.8047 17.6818 46.0269 17.2092 45.6488 16.0071C45.267 14.7935 45.6306 13.9494 47.0045 13.5172C48.3898 13.0814 49.1711 13.5654 49.5529 14.779C49.9311 15.9811 49.5639 16.8138 48.1785 17.2496Z" fill="white"/>
<path d="M60.2202 16.0946L60.0926 12.7484C60.0519 11.681 60.4502 11.1013 61.4697 11.0625C62.3572 11.0287 62.7321 11.4107 62.7645 12.2623L62.7846 12.79L64.0679 12.7411L64.0382 11.9615C63.9952 10.8341 63.3705 9.88503 62.0153 9.93669C60.792 9.98331 60.1736 10.7756 60.0302 11.7419L59.9463 11.7451L59.885 10.138L58.6977 10.1832L58.9249 16.144L60.2202 16.0946Z" fill="white"/>
<path d="M72.0733 17.2326C73.8034 17.6351 75.2177 17.0645 75.5059 15.8254L75.5304 15.7202L74.2679 15.4265L74.2461 15.52C74.0857 16.2097 73.4906 16.4902 72.2748 16.2074C70.9305 15.8947 70.5197 15.1707 70.734 14.0375L75.6672 15.1852C75.7431 15.018 75.7928 14.8571 75.8418 14.6466C76.2524 12.8814 75.2561 11.6023 73.4559 11.1834C71.5621 10.7429 70.0402 11.6704 69.6186 13.4823C69.1672 15.4228 70.1678 16.7893 72.0733 17.2326ZM73.2014 12.1717C74.4405 12.4599 74.9404 13.1184 74.6902 14.1939L74.6848 14.2173L70.9089 13.3389C71.2211 12.3148 71.9155 11.8725 73.2014 12.1717Z" fill="white"/>
<path d="M90.0659 25.5117L93.1896 21.9774L94.0756 20.9024L94.1476 20.966L93.9651 22.6949L93.5732 28.6115L94.6164 29.5335L99.9418 23.5082L98.9705 22.6498L95.823 26.211L94.9062 27.3389L94.8343 27.2753L95.0454 25.4597L95.4632 19.5499L94.42 18.6279L89.0947 24.6533L90.0659 25.5117Z" fill="white"/>
<path d="M100.828 38.0091C101.834 39.7286 103.595 40.2418 105.18 39.3142C106.785 38.3745 107.19 36.5943 106.183 34.8748C105.183 33.1656 103.433 32.6464 101.827 33.5861C100.242 34.5136 99.8276 36.3 100.828 38.0091ZM101.822 37.4271C101.095 36.1841 101.382 35.3206 102.47 34.684C103.568 34.0414 104.472 34.2077 105.199 35.4507C105.933 36.7041 105.635 37.5736 104.537 38.2163C103.449 38.8528 102.556 38.6805 101.822 37.4271Z" fill="white"/>
<path d="M106.047 50.3831L109.673 50.9974L111.199 51.1544L111.218 51.2485L109.873 51.9856L106.767 53.9477L107.086 55.5241L113.292 56.1192L113.03 54.8251L109.515 54.519L107.955 54.5526L107.936 54.4585L109.471 53.6952L112.422 51.8134L112.094 50.1899L108.646 49.613L106.935 49.5057L106.916 49.4116L108.367 48.8368L111.487 47.19L111.221 45.8724L105.728 48.8067L106.047 50.3831Z" fill="white"/>
<path d="M106.152 73.7564L107.298 73.958L108.188 68.8986L110.457 69.2975L109.599 74.1795L110.734 74.379L111.592 69.4969L113.814 69.8875L112.925 74.9468L114.072 75.1484L115.185 68.8123L107.265 67.4204L106.152 73.7564Z" fill="white"/>
<path d="M103.403 81.5438L104.561 84.3162L104.523 84.3913L101.596 85.1357L100.889 86.5403L104.703 85.5833L104.767 85.6156L106.218 89.2207L106.919 87.8268L105.783 85.0652L105.815 85.0009L108.721 84.2456L109.427 82.841L105.646 83.8142L105.582 83.7819L104.098 80.1606L103.403 81.5438Z" fill="white"/>
<path d="M95.0317 90.9669L97.7334 93.525L97.7004 93.5599C96.7423 92.9832 95.6339 93.1239 94.7097 94.1C93.4307 95.4508 93.6356 97.0499 94.9778 98.3207C96.3199 99.5915 97.953 99.6997 99.2238 98.3575C100.189 97.3378 100.279 96.2657 99.6421 95.3322L99.7163 95.2537L100.919 96.3925L101.736 95.5297L95.9229 90.0256L95.0317 90.9669ZM98.6049 94.3502L98.6834 94.4245C99.6159 95.3074 99.5575 96.2769 98.6415 97.2443C97.7833 98.1507 96.9148 98.3696 95.869 97.3794C94.8319 96.3974 94.9862 95.5187 95.8691 94.5862C96.7439 93.6624 97.716 93.5085 98.6049 94.3502Z" fill="white"/>
<path d="M86.0921 101.221L90.3549 108.04L91.454 107.352L87.1912 100.534L86.0921 101.221Z" fill="white"/>
<path d="M76.2296 105.665C74.3291 106.263 73.4364 107.865 73.9874 109.616C74.5456 111.391 76.191 112.182 78.0916 111.584C79.9807 110.99 80.877 109.399 80.3187 107.625C79.7677 105.873 78.1187 105.071 76.2296 105.665ZM76.5754 106.764C77.9492 106.332 78.727 106.804 79.1051 108.007C79.4869 109.22 79.1233 110.064 77.7494 110.496C76.3641 110.932 75.5828 110.448 75.201 109.235C74.8229 108.033 75.19 107.2 76.5754 106.764Z" fill="white"/>
<path d="M64.5338 107.919L64.6613 111.265C64.702 112.333 64.3037 112.912 63.2842 112.951C62.3967 112.985 62.0218 112.603 61.9894 111.751L61.9693 111.224L60.686 111.273L60.7157 112.052C60.7587 113.18 61.3834 114.129 62.7386 114.077C63.9619 114.03 64.5803 113.238 64.7237 112.272L64.8076 112.269L64.8689 113.876L66.0562 113.83L65.829 107.87L64.5338 107.919Z" fill="white"/>
<path d="M52.6806 106.781C50.9505 106.379 49.5362 106.949 49.248 108.188L49.2235 108.293L50.486 108.587L50.5078 108.494C50.6682 107.804 51.2633 107.523 52.4791 107.806C53.8234 108.119 54.2342 108.843 54.0199 109.976L49.0867 108.828C49.0108 108.996 48.9611 109.157 48.9121 109.367C48.5015 111.132 49.4978 112.411 51.298 112.83C53.1918 113.271 54.7138 112.343 55.1353 110.531C55.5867 108.591 54.5861 107.224 52.6806 106.781ZM51.5526 111.842C50.3134 111.554 49.8135 110.895 50.0637 109.82L50.0691 109.796L53.845 110.675C53.5328 111.699 52.8384 112.141 51.5526 111.842Z" fill="white"/>
<path d="M34.688 98.502L31.5643 102.036L30.6783 103.111L30.6063 103.048L30.7888 101.319L31.1807 95.4021L30.1375 94.4801L24.8121 100.505L25.7834 101.364L28.9309 97.8027L29.8477 96.6747L29.9197 96.7383L29.7085 98.554L29.2907 104.464L30.3339 105.386L35.6592 99.3604L34.688 98.502Z" fill="white"/>
<path d="M23.9259 86.0046C22.9196 84.2851 21.159 83.7719 19.5742 84.6994C17.9686 85.6391 17.5643 87.4194 18.5707 89.1389C19.571 90.848 21.3212 91.3673 22.9268 90.4276C24.5116 89.5 24.9263 87.7137 23.9259 86.0046ZM22.9315 86.5866C23.6591 87.8296 23.3718 88.6931 22.2841 89.3296C21.1861 89.9723 20.2822 89.806 19.5547 88.563C18.8211 87.3096 19.1188 86.4401 20.2168 85.7974C21.3044 85.1608 22.198 85.3332 22.9315 86.5866Z" fill="white"/>
<path d="M18.7069 73.6306L15.0808 73.0163L13.5552 72.8593L13.5362 72.7652L14.8812 72.0281L17.9867 70.066L17.6682 68.4895L11.4623 67.8945L11.7238 69.1886L15.2386 69.4947L16.7992 69.461L16.8182 69.5551L15.2826 70.3185L12.3323 72.2003L12.6603 73.8237L16.1075 74.4007L17.8189 74.5079L17.8379 74.6021L16.3867 75.1769L13.2665 76.8237L13.5327 78.1413L19.0254 75.207L18.7069 73.6306Z" fill="white"/>
</svg>
