<svg width="1440" height="566" viewBox="0 0 1440 566" fill="none" xmlns="http://www.w3.org/2000/svg">
<path d="M0.320312 1C324.482 29.9797 774.002 359.36 732.518 473.895C705.316 548.979 386.617 547.293 299.547 560.834C180.808 579.276 405.636 510.238 451.427 430.426C505.832 335.583 423.25 86.2529 685.231 130.091C913.867 168.371 963.376 292.351 1127.27 289.479C1275.5 286.845 1390.97 182.781 1465.03 95.8425" stroke="white" stroke-opacity="0.3" stroke-miterlimit="10"/>
<path d="M0.292969 8.59961C310.854 40.9119 743.304 359.899 708.734 469.64C686.066 541.536 384.232 539.138 303.668 551.31C191.979 568.157 407.218 501.807 452.624 425.235C507.028 333.422 431.95 94.8141 684.864 137.085C910.485 174.693 956.027 301.558 1121.39 301.742C1269.9 301.584 1389.93 199.773 1467.25 114.692" stroke="white" stroke-opacity="0.3" stroke-miterlimit="10"/>
<path d="M0.265625 16.1611C297.225 51.8061 712.606 360.374 684.973 465.346C666.838 534.054 381.847 530.945 307.789 541.747C203.128 556.948 408.8 493.338 453.82 419.993C508.225 331.21 440.673 103.35 684.497 144.04C907.103 180.99 948.677 311.069 1115.54 313.967C1264.29 316.601 1388.88 216.74 1469.49 133.502" stroke="white" stroke-opacity="0.3" stroke-miterlimit="10"/>
<path d="M0.265625 23.7754C283.624 62.7662 681.935 360.862 661.216 461.105C647.615 526.586 379.467 522.805 311.914 532.237C214.235 545.699 410.41 484.868 455.022 414.764C509.585 328.997 449.4 111.887 684.157 150.983C903.725 187.287 941.287 320.448 1109.65 326.178C1258.65 331.302 1387.81 233.72 1471.71 152.3" stroke="white" stroke-opacity="0.3" stroke-miterlimit="10"/>
<path d="M0.25 31.3623C270.143 73.6858 651.249 361.282 637.466 456.836C628.399 519.077 377.117 514.624 316.07 522.62C225.395 534.475 412.049 476.411 456.23 409.534C510.884 326.797 458.134 120.435 683.801 157.938C900.355 193.582 933.927 329.681 1103.83 338.402C1253.03 346.055 1386.82 250.686 1473.96 171.11" stroke="white" stroke-opacity="0.3" stroke-miterlimit="10"/>
<path d="M0.226562 38.9502C256.564 84.6195 620.555 361.678 613.686 452.569C609.152 511.529 374.758 506.445 320.195 513.071C236.593 523.213 413.726 467.941 457.431 404.305C512.198 324.584 466.861 128.998 683.46 164.906C896.954 199.906 926.536 338.982 1097.96 350.64C1247.41 360.809 1385.85 267.652 1476.21 189.934" stroke="white" stroke-opacity="0.3" stroke-miterlimit="10"/>
<path d="M0.226562 46.5498C242.985 95.5518 589.839 361.875 589.929 448.313C589.929 503.941 372.31 498.237 324.32 503.506C247.746 511.897 415.403 459.484 458.632 399.087C513.536 322.37 475.566 137.52 683.052 171.874C893.531 206.201 919.078 348.254 1092.06 362.876C1241.68 375.522 1384.69 284.67 1478.4 208.757" stroke="white" stroke-opacity="0.3" stroke-miterlimit="10"/>
<path d="M0.207031 54.1387C229.387 106.473 559.08 362.074 566.176 444.047C570.709 496.316 370.092 490.019 328.472 493.958C258.902 500.544 417.152 451.028 459.95 393.846C515.035 320.08 484.296 146.307 682.851 178.817C890.179 212.763 911.805 357.49 1086.35 375.088C1236.26 390.211 1383.81 301.638 1480.79 227.556" stroke="white" stroke-opacity="0.3" stroke-miterlimit="10"/>
<path d="M0.179688 61.7266C215.804 117.407 528.224 362.193 542.392 439.779C551.323 488.636 367.843 481.787 332.593 484.395C270.096 489.032 418.893 442.572 461.056 388.643C516.3 317.933 492.792 154.896 682.393 185.786C886.683 219.099 904.342 366.711 1080.39 387.326C1230.5 404.898 1382.67 318.631 1482.91 246.38" stroke="white" stroke-opacity="0.3" stroke-miterlimit="10"/>
<path d="M0.179688 69.3125C202.226 128.326 497.281 362.205 518.635 435.51C531.873 480.916 365.621 473.513 336.719 474.843C281.316 477.386 420.593 434.114 462.258 383.412C517.751 315.719 501.611 163.431 682.144 192.766C883.396 225.447 897.065 375.93 1074.63 399.575C1224.97 419.584 1381.74 335.622 1485.27 265.215" stroke="white" stroke-opacity="0.3" stroke-miterlimit="10"/>
<path d="M0.160156 76.9004C188.65 139.259 466.16 362.139 494.881 431.243C512.291 473.158 363.584 465.215 340.734 465.294C292.586 465.452 422.341 425.671 463.349 378.183C519.114 313.493 510.205 172.006 681.58 199.721C879.772 231.783 889.452 385.112 1068.56 411.8C1219.12 434.193 1380.48 352.602 1487.27 284.026" stroke="white" stroke-opacity="0.3" stroke-miterlimit="10"/>
<path d="M0.136719 84.5C175.071 150.178 434.831 361.993 471.124 426.987C492.546 465.359 361.045 459.036 344.995 455.729C304.464 458.364 424.335 417.226 464.663 372.966C520.745 311.279 519.068 180.554 681.33 206.689C876.507 238.105 882.197 394.279 1062.8 424.036C1213.61 448.866 1379.55 369.594 1489.63 302.849" stroke="white" stroke-opacity="0.3" stroke-miterlimit="10"/>
<path d="M0.136719 92.0879C161.47 161.112 403.186 361.796 447.344 422.719C472.597 457.548 358.732 451.014 349.121 446.18C315.707 447.392 426.353 408.796 465.864 367.737C522.332 309.066 527.773 189.104 680.967 213.618C873.107 244.402 874.83 403.408 1056.95 436.234C1208.01 463.462 1378.5 386.548 1491.87 321.633" stroke="white" stroke-opacity="0.3" stroke-miterlimit="10"/>
<path d="M0.121094 99.6758C147.898 172.033 371.207 361.612 423.594 418.452C452.429 449.75 356.405 442.992 353.322 436.617C327.003 436.393 428.423 400.366 467.141 362.521C524.062 306.854 536.575 197.64 680.702 220.613C869.804 250.752 867.56 412.577 1051.18 448.499C1202.49 478.097 1377.61 403.567 1494.17 340.484" stroke="white" stroke-opacity="0.3" stroke-miterlimit="10"/>
<path d="M0.0859375 107.264C134.307 182.966 338.824 361.494 399.825 414.185C432.015 441.992 354.08 434.971 357.367 427.067C338.166 425.394 430.405 391.962 468.262 357.253C525.727 304.562 545.222 206.137 680.259 227.529C866.346 257.023 860.135 421.653 1045.22 460.684C1196.81 492.667 1376.44 420.507 1496.33 359.255" stroke="white" stroke-opacity="0.3" stroke-miterlimit="10"/>
<path d="M0.0859375 114.851C120.729 193.886 306.113 361.56 376.046 409.916C411.386 434.325 351.745 426.948 361.515 417.517C349.41 414.408 432.536 383.571 469.463 352.075C527.563 302.52 553.95 214.699 679.897 234.537C862.969 263.358 852.813 430.808 1039.38 472.96C1191.26 507.288 1375.39 437.526 1498.58 378.118" stroke="white" stroke-opacity="0.3" stroke-miterlimit="10"/>
<path d="M0.0585938 122.438C107.145 204.82 272.899 361.889 352.284 405.649C390.617 426.791 349.428 418.927 365.636 407.954C360.649 403.409 434.73 375.22 470.66 346.846C529.485 300.4 562.672 223.222 679.552 241.466C859.586 269.616 845.509 439.845 1033.5 485.158C1185.68 521.831 1374.35 454.479 1500.79 396.902" stroke="white" stroke-opacity="0.3" stroke-miterlimit="10"/>
<path d="M0.046875 130.039C93.5551 215.74 239.587 362.574 328.539 401.394C369.818 419.401 347.104 410.905 369.773 398.404C371.904 392.423 437.031 366.895 471.782 341.617C531.491 298.345 571.343 231.744 679.109 248.46C856.129 275.925 838.153 448.973 1027.57 497.422C1180.04 536.426 1373.25 471.498 1502.96 415.752" stroke="white" stroke-opacity="0.3" stroke-miterlimit="10"/>
<path d="M0.046875 137.627C79.9766 226.674 206.218 363.616 304.782 397.127C349.031 412.17 348.056 404.898 373.898 388.854C384.666 382.163 439.388 358.557 473.097 336.401C533.803 296.383 580.183 240.241 678.86 255.429C852.865 282.196 830.967 458.037 1021.79 509.66C1174.6 550.995 1372.29 488.478 1505.29 434.576" stroke="white" stroke-opacity="0.3" stroke-miterlimit="10"/>
<path d="M0.0195312 145.252C66.3934 237.631 173.027 365.049 281.111 392.896C328.511 405.12 344.039 395.966 378.156 379.329C395.27 370.977 441.922 350.441 474.407 331.209C536.315 294.576 589.019 248.788 678.606 262.422C849.618 288.464 823.821 467.137 1016.05 521.922C1169.2 565.576 1371.36 505.509 1507.62 453.424" stroke="white" stroke-opacity="0.3" stroke-miterlimit="10"/>
<path d="M0 152.802C52.818 248.527 140.16 366.672 257.244 388.591C307.954 398.088 340.687 387.274 382.171 369.741C405.928 359.69 444.283 342.263 475.498 325.955C538.789 292.879 597.705 257.168 678.133 269.313C846.244 294.473 816.616 475.964 1010.07 534.082C1163.67 579.936 1370.21 522.411 1509.76 472.171" stroke="white" stroke-opacity="0.3" stroke-miterlimit="10"/>
<path d="M0 160.388C39.2395 259.445 107.699 368.514 233.487 384.321C395.954 404.805 521.221 253.07 677.793 276.306C842.866 300.82 809.271 485.184 1004.22 546.344C1158.07 594.635 1369.19 539.442 1512 491.019" stroke="white" stroke-opacity="0.3" stroke-miterlimit="10"/>
</svg>
