<svg width="1440" height="1302" viewBox="0 0 1440 1302" fill="none" xmlns="http://www.w3.org/2000/svg">
<path d="M1207.47 549.264C1186.92 304.363 980.725 148.885 825.813 152.013C647.294 155.647 580.011 369.064 444.156 304.152C320.181 244.986 312.877 36.894 221.734 4.09961C137.972 -26.0324 5.42866 99.7782 -213 722.534" stroke="white" stroke-opacity="0.3" stroke-miterlimit="10"/>
<path d="M-202.586 750.128C13.1888 136.374 145.808 5.70392 230.758 30.2575C293.719 48.5987 317.983 149.644 367.244 228.63C391.832 269.288 422.073 299.101 455.253 315.391C563.936 368.893 628.717 250.479 744.857 199.681C774.459 186.584 804.881 179.35 835.494 178.128C991.037 171.071 1194.93 305.84 1218.67 541.825" stroke="white" stroke-opacity="0.3" stroke-miterlimit="10"/>
<path d="M-192.148 777.643C20.9724 172.933 153.592 37.4444 239.553 56.4618C302.741 70.4501 328.446 166.678 377.808 241.649C402.984 280.845 433.18 309.912 466.095 326.635C573.211 381.025 637.966 274.359 754.511 225.928C784.128 213.515 814.435 206.264 844.945 204.29C1001.15 194.105 1202.72 307.322 1229.63 534.39" stroke="white" stroke-opacity="0.3" stroke-miterlimit="10"/>
<path d="M-181.734 805.07C28.682 209.53 161.377 69.2664 248.45 82.6208C311.916 92.3408 338.961 183.666 388.5 254.665C414.211 292.375 444.339 320.715 476.964 337.876C582.614 393.153 647.117 298.193 764.192 252.171C793.837 240.333 824.064 233.02 854.5 230.322C1011.33 216.545 1210.58 308.674 1240.68 526.824" stroke="white" stroke-opacity="0.3" stroke-miterlimit="10"/>
<path d="M-171.32 832.708C36.4422 246.085 169.112 101.131 257.373 108.822C321.041 114.316 349.552 200.74 399.243 267.639C425.507 303.883 455.622 331.525 488.01 349.117C592.194 405.282 656.52 322.07 774.176 278.415C803.789 267.268 833.871 259.949 864.156 256.524C1021.65 239.155 1218.57 310.237 1251.88 519.471" stroke="white" stroke-opacity="0.3" stroke-miterlimit="10"/>
<path d="M-161.008 860.262C44.1766 282.641 176.922 128.896 266.295 134.982C330.09 139.208 360.142 217.517 409.935 280.655C436.739 315.369 466.839 342.311 498.979 360.359C601.698 417.411 665.796 345.948 783.856 304.701C813.46 294.133 843.439 286.765 873.609 282.641C1031.76 261.51 1226.35 311.674 1262.85 512.033" stroke="white" stroke-opacity="0.3" stroke-miterlimit="10"/>
<path d="M-150.473 887.817C51.9315 319.24 184.576 165.157 275.188 160.931C339.185 158.48 370.779 234.549 420.647 293.714C447.961 326.885 478.05 353.144 509.944 371.643C611.197 429.583 675.143 369.826 793.634 330.988C823.229 321.051 853.11 313.66 883.158 308.844C1041.96 284.121 1234.23 313.07 1273.91 504.638" stroke="white" stroke-opacity="0.3" stroke-miterlimit="10"/>
<path d="M-140.055 915.369C59.6197 355.793 192.289 196.935 284.114 187.342C348.263 180.495 381.475 251.198 431.368 306.686C459.17 338.282 489.261 363.844 520.918 382.756C620.68 441.625 684.474 393.659 803.42 357.103C831.096 348.651 860.643 340.537 892.717 334.832C1052.2 306.39 1242.12 314.589 1284.99 497.156" stroke="white" stroke-opacity="0.3" stroke-miterlimit="10"/>
<path d="M-129.645 942.923C67.4266 392.391 199.995 229.18 293.008 213.417C357.334 202.556 392.188 267.891 442.132 319.618C470.424 349.623 500.534 374.54 531.96 393.955C630.256 453.712 693.848 417.41 813.274 383.347C841.077 375.402 870.547 367.373 902.369 360.949C1062.31 328.831 1250 316.068 1296.06 489.676" stroke="white" stroke-opacity="0.3" stroke-miterlimit="10"/>
<path d="M-119.203 970.436C75.1888 428.948 207.707 261.341 301.933 239.704C366.41 224.87 403.034 284.669 452.776 332.678C481.519 361.073 511.644 385.36 542.831 405.282C639.686 465.926 703.102 441.372 822.982 409.508C850.785 402.07 880.281 394.04 911.85 386.94C1072.63 350.934 1257.89 317.295 1307.13 482.027" stroke="white" stroke-opacity="0.3" stroke-miterlimit="10"/>
<path d="M-108.789 997.991C82.9237 465.505 215.417 293.588 310.78 265.865C375.409 247.101 413.701 301.279 463.442 345.738C492.632 372.461 522.794 396.103 553.751 416.524C649.114 478.056 712.353 465.209 832.714 435.964C860.643 429.118 890.063 421.046 921.354 413.313C1082.79 373.418 1265.7 318.986 1318.18 474.802" stroke="white" stroke-opacity="0.3" stroke-miterlimit="10"/>
<path d="M-98.375 1025.55C90.6838 502.103 223.177 325.833 319.753 292.025C384.559 269.373 424.545 317.846 474.185 358.755C502.721 382.252 531.939 405.96 564.772 427.767C658.669 490.144 721.731 489.087 842.547 462.209C870.551 455.912 899.921 447.798 931.01 439.431C1093.1 395.648 1273.69 320.424 1329.32 467.365" stroke="white" stroke-opacity="0.3" stroke-miterlimit="10"/>
<path d="M-87.9609 1053.1C98.444 538.826 230.76 358.161 328.651 318.225C393.633 291.643 435.388 334.326 484.902 371.769C514.121 393.872 543.415 416.904 575.742 439.006C668.173 502.397 731.033 512.92 852.329 488.451C880.409 482.746 909.754 474.59 940.514 465.546C1103.24 417.791 1281.53 321.859 1340.34 459.925" stroke="white" stroke-opacity="0.3" stroke-miterlimit="10"/>
<path d="M-77.6016 1080.65C106.175 575.255 238.617 390.533 337.544 344.426C402.704 314.041 446.228 350.765 495.616 384.827C525.542 405.451 554.886 427.849 586.607 450.29C677.597 514.441 740.23 536.84 862.107 514.78C890.289 509.581 919.557 501.383 950.065 491.747C1113.44 439.936 1289.41 323.296 1351.41 452.487" stroke="white" stroke-opacity="0.3" stroke-miterlimit="10"/>
<path d="M-67.1055 1108.16C113.941 611.81 246.308 422.989 346.473 370.585C411.835 336.354 457.103 367.078 506.314 397.801C536.948 416.903 566.393 438.752 597.684 461.488C687.158 526.528 749.664 560.632 871.895 540.981C901.366 535.728 930.656 527.956 959.651 517.695C1123.64 462.038 1297.38 324.817 1362.49 445.007" stroke="white" stroke-opacity="0.3" stroke-miterlimit="10"/>
<path d="M-56.6953 1135.72C121.697 648.408 254.19 455.318 355.291 396.745C420.855 358.71 467.892 383.348 517.053 410.818C548.394 428.356 577.89 449.655 608.65 472.73C696.684 538.657 758.987 584.51 881.623 567.225C911.067 562.612 940.304 554.834 969.151 543.939C1133.82 483.887 1305.19 326.254 1373.58 437.4" stroke="white" stroke-opacity="0.3" stroke-miterlimit="10"/>
<path d="M-46.2852 1163.27C129.428 684.964 262.073 487.944 364.286 422.905C430.002 381.151 478.833 399.534 527.741 423.792C559.79 439.724 589.337 460.601 619.591 483.971C706.134 550.786 768.285 608.345 891.452 593.469C920.869 589.441 950.057 581.613 978.752 570.057C1143.98 506.032 1313.07 327.733 1384.65 430.131" stroke="white" stroke-opacity="0.3" stroke-miterlimit="10"/>
<path d="M-35.8437 1190.83C137.191 721.73 269.759 520.442 373.186 449.106C439.179 403.548 489.705 415.635 538.435 436.808C571.293 451.05 600.814 471.504 630.563 495.212C715.64 562.829 777.59 632.222 901.236 619.755C930.624 616.285 959.765 608.406 988.309 596.216C1154.14 528.007 1320.96 329.169 1395.72 422.693" stroke="white" stroke-opacity="0.3" stroke-miterlimit="10"/>
<path d="M-25.4336 1218.38C144.82 758.116 277.591 553.025 382.104 475.434C448.326 426.158 500.544 431.863 549.148 450.077C582.638 462.756 612.337 482.703 641.53 506.707C725.14 575.296 786.913 656.352 911.014 646.168C940.37 643.256 969.47 635.326 997.86 622.502C1164.3 550.066 1328.97 330.902 1406.79 415.423" stroke="white" stroke-opacity="0.3" stroke-miterlimit="10"/>
<path d="M-15.0195 1245.94C152.682 794.716 285.453 585.61 391.002 501.468C457.501 448.431 511.388 447.67 559.866 462.842C594.063 473.576 623.787 493.396 652.5 517.781C734.619 587.258 796.215 680.02 920.796 672.329C950.12 669.998 979.186 662.014 1007.41 648.536C1174.43 571.748 1336.73 332.087 1417.86 407.818" stroke="white" stroke-opacity="0.3" stroke-miterlimit="10"/>
<path d="M-4.57812 1273.45C160.444 831.27 293.316 618.402 399.826 527.626C466.578 470.912 522.107 463.601 570.459 475.857C605.364 484.689 635.164 504.298 663.346 528.894C744.024 599.3 805.443 703.812 930.48 698.487C959.776 696.693 988.816 688.655 1016.9 674.567C1184.37 593.088 1344.51 333.564 1428.88 400.337" stroke="white" stroke-opacity="0.3" stroke-miterlimit="10"/>
<path d="M5.80859 1301C269.278 597.991 455.506 464.362 581.275 488.873C718.57 515.624 770.966 728.661 940.361 724.773C1139.07 720.167 1337.66 325.197 1440 392.899" stroke="white" stroke-opacity="0.3" stroke-miterlimit="10"/>
</svg>
