<svg width="1440" height="2358" viewBox="0 0 1440 2358" fill="none" xmlns="http://www.w3.org/2000/svg">
<path d="M0 1951.22C229.571 1677.04 353.318 1315.44 424.686 1019.62C484.18 772.996 483.124 672.111 546.297 488.11C683.389 88.834 946.003 -186.505 1073.28 156.618C1135.98 325.642 1112.79 539.84 1142.77 945.329C1169.75 1310.09 1239.51 1811.78 1434.26 2357" stroke="white" stroke-opacity="0.3" stroke-miterlimit="10"/>
<path d="M0.460938 1862.76C223.757 1627.13 346.266 1286.95 417.597 1010.1C477.616 777.09 482.496 683.913 549.598 503.074C690.361 123.713 936.99 -140.4 1064.45 179.756C1130.1 344.651 1115.16 555.184 1150.3 959.485C1181.24 1315.43 1252.42 1808.53 1443.81 2348.86" stroke="white" stroke-opacity="0.3" stroke-miterlimit="10"/>
<path d="M0.917969 1774.31C217.934 1577.21 339.301 1258.37 410.517 1000.58C471.186 780.964 481.757 695.704 552.907 518.04C697.031 158.152 928.365 -94.9066 1055.63 202.884C1124.37 363.771 1117.44 570.321 1157.84 973.629C1192.61 1320.66 1265.34 1805.25 1453.38 2340.67" stroke="white" stroke-opacity="0.3" stroke-miterlimit="10"/>
<path d="M1.37891 1685.85C212.116 1527.28 332.46 1229.7 403.44 990.981C464.838 784.603 480.902 707.407 556.236 533.015C703.436 192.098 920.117 -50.1029 1046.82 226.02C1118.81 382.888 1119.62 585.283 1165.4 987.783C1203.84 1325.82 1278.27 1801.96 1462.95 2332.5" stroke="white" stroke-opacity="0.3" stroke-miterlimit="10"/>
<path d="M1.83594 1597.41C206.315 1477.39 325.757 1201.03 396.36 981.518C458.593 788.044 479.972 718.998 559.52 547.976C709.539 225.54 912.163 -6.03556 1037.97 249.156C1113.35 402.04 1121.64 600.146 1172.91 1001.93C1214.9 1330.95 1291.17 1798.69 1472.48 2324.28" stroke="white" stroke-opacity="0.3" stroke-miterlimit="10"/>
<path d="M2.29688 1508.96C200.48 1427.48 319.21 1172.36 389.283 971.999C452.485 791.283 478.898 730.423 562.833 562.955C715.443 258.436 904.54 37.2904 1029.15 272.285C1108.05 421.088 1123.52 614.942 1180.45 1016.09C1225.84 1336.1 1304.09 1795.4 1482.04 2316.18" stroke="white" stroke-opacity="0.3" stroke-miterlimit="10"/>
<path d="M2.75391 1420.51C194.658 1377.62 312.841 1143.8 382.203 962.473C446.514 794.343 477.749 741.645 566.138 577.915C721.153 290.787 897.186 79.8247 1020.32 295.419C1102.87 439.958 1125.32 629.73 1187.98 1030.23C1236.66 1341.3 1317.03 1792.12 1491.6 2308" stroke="white" stroke-opacity="0.3" stroke-miterlimit="10"/>
<path d="M3.23438 1332.06C188.859 1327.66 306.695 1115.38 375.145 952.951C440.732 797.309 476.557 752.627 569.466 592.88C726.716 322.59 890.105 121.591 1011.52 318.558C1097.84 458.599 1126.97 644.548 1195.54 1044.39C1247.35 1346.55 1329.93 1788.8 1501.16 2299.84" stroke="white" stroke-opacity="0.3" stroke-miterlimit="10"/>
<path d="M3.67578 1243.61C183.021 1277.74 300.724 1087.24 368.049 943.421C435.105 800.23 475.223 763.268 572.76 607.859C732.121 353.857 883.203 162.577 1002.67 341.688C1092.91 476.937 1128.45 659.491 1203.06 1058.55C1257.92 1351.93 1342.85 1785.57 1510.75 2291.68" stroke="white" stroke-opacity="0.3" stroke-miterlimit="10"/>
<path d="M4.13281 1155.2C177.203 1227.86 294.989 1059.49 360.969 933.931C429.651 803.241 473.854 773.78 576.064 622.856C737.404 384.639 876.474 202.844 993.847 364.859C1088.08 494.924 1129.82 674.61 1210.6 1072.73C1268.37 1357.46 1355.77 1782.31 1520.28 2283.55" stroke="white" stroke-opacity="0.3" stroke-miterlimit="10"/>
<path d="M4.59375 1066.71C171.405 1177.91 289.481 1032.14 353.896 924.375C424.421 806.381 472.44 783.844 579.377 637.798C742.621 414.85 869.907 242.296 985.023 387.95C1083.36 512.378 1131.05 689.871 1218.14 1086.86C1278.73 1363.08 1368.69 1779 1529.84 2275.33" stroke="white" stroke-opacity="0.3" stroke-miterlimit="10"/>
<path d="M5.05078 978.261C165.562 1128.01 284.181 1005.41 346.816 914.853C419.385 809.923 470.993 793.599 582.682 652.762C747.772 444.619 863.455 281.084 976.196 411.088C1078.73 529.315 1132.15 705.41 1225.67 1101C1289 1368.9 1381.61 1775.72 1539.4 2267.18" stroke="white" stroke-opacity="0.3" stroke-miterlimit="10"/>
<path d="M5.51172 889.797C159.744 1078.09 279.066 979.358 339.739 905.312C414.543 814.023 469.48 803.018 585.995 667.72C752.885 473.927 857.091 319.18 967.377 434.22C1074.17 545.62 1133.14 721.226 1233.21 1115.15C1299.2 1374.9 1394.53 1772.43 1548.96 2259.02" stroke="white" stroke-opacity="0.3" stroke-miterlimit="10"/>
<path d="M5.97266 801.352C153.93 1028.17 274.105 954.077 332.662 895.791C409.872 818.939 467.958 812.088 589.295 682.697C757.961 502.839 850.776 356.707 958.545 457.347C1069.7 561.211 1134 737.392 1240.74 1129.3C1309.33 1381.11 1407.45 1769.19 1558.52 2250.82" stroke="white" stroke-opacity="0.3" stroke-miterlimit="10"/>
<path d="M6.42969 712.91C148.108 978.273 269.239 929.62 325.565 886.273C405.304 824.923 466.399 820.817 592.596 697.664C763.03 531.348 844.482 393.513 949.709 480.489C1065.26 575.994 1134.76 753.916 1248.27 1143.5C1319.39 1387.57 1420.35 1765.92 1568.06 2242.73" stroke="white" stroke-opacity="0.3" stroke-miterlimit="10"/>
<path d="M6.89062 624.447C142.31 928.353 264.418 905.987 318.505 876.746C400.835 832.235 464.865 829.184 595.922 712.636C768.114 559.446 838.216 429.797 940.903 503.611C1060.88 589.875 1135.45 770.775 1255.82 1157.6C1329.45 1394.18 1433.29 1762.59 1577.64 2234.52" stroke="white" stroke-opacity="0.3" stroke-miterlimit="10"/>
<path d="M7.37109 536.004C136.491 878.441 260.155 838.856 311.448 867.215C395.347 913.613 463.334 837.202 599.254 727.603C773.226 587.293 831.908 465.549 932.078 526.752C1056.5 602.734 1136.04 788.144 1263.36 1171.76C1339.45 1401 1446.21 1759.31 1587.2 2226.31" stroke="white" stroke-opacity="0.3" stroke-miterlimit="10"/>
<path d="M7.80859 447.56C130.653 828.527 255.791 824.519 304.348 857.694C389.455 915.833 461.759 844.887 602.539 742.568C778.354 614.746 825.524 500.772 923.252 549.891C1052.11 614.574 1136.56 805.879 1270.9 1185.94C1349.43 1408.09 1459.12 1756.07 1596.76 2218.22" stroke="white" stroke-opacity="0.3" stroke-miterlimit="10"/>
<path d="M8.27344 359.098C124.839 778.62 250.862 811.587 297.275 848.169C383.914 916.443 460.221 852.225 605.856 757.48C783.516 641.962 819.069 535.586 914.433 572.952C1047.69 625.172 1137.03 823.989 1278.44 1200C1359.4 1415.27 1472.05 1752.72 1606.32 2209.97" stroke="white" stroke-opacity="0.3" stroke-miterlimit="10"/>
<path d="M8.73047 270.654C119.016 728.706 243.86 818.464 290.199 838.648C381.473 878.318 458.699 859.262 609.165 772.47C788.725 668.95 812.493 570.05 905.609 596.117C1043.19 634.672 1137.44 842.693 1285.99 1214.22C1369.37 1422.81 1484.98 1749.47 1615.88 2201.87" stroke="white" stroke-opacity="0.3" stroke-miterlimit="10"/>
<path d="M9.19141 182.205C113.198 678.788 238.092 797.652 283.118 829.111C375.692 893.782 457.19 865.975 612.47 787.443C793.971 695.688 805.772 604.129 896.782 619.252C1038.6 642.807 1137.82 861.661 1293.52 1228.34C1379.34 1430.46 1497.89 1746.16 1625.44 2193.67" stroke="white" stroke-opacity="0.3" stroke-miterlimit="10"/>
<path d="M9.64844 93.7448C107.38 628.871 231.926 776.816 276.038 819.587C369.378 910.129 455.706 872.395 615.779 802.43C799.275 722.231 798.89 637.939 887.959 642.4C1033.87 649.753 1138.17 881.145 1301.06 1242.5C1389.32 1438.29 1510.8 1742.91 1635 2185.53" stroke="white" stroke-opacity="0.3" stroke-miterlimit="10"/>
</svg>
