<svg width="24" height="25" viewBox="0 0 24 25" fill="none" xmlns="http://www.w3.org/2000/svg">
<g id="052-linkedin" clip-path="url(#clip0_502_3959)">
<path id="Vector" d="M23.9943 24.1252V24.1242H24.0003V15.3222C24.0003 11.0162 23.0733 7.69922 18.0393 7.69922C15.6193 7.69922 13.9953 9.02722 13.3323 10.2862H13.2623V8.10122H8.48926V24.1242H13.4593V16.1902C13.4593 14.1012 13.8553 12.0812 16.4423 12.0812C18.9913 12.0812 19.0293 14.4652 19.0293 16.3242V24.1252H23.9943Z" fill="white"/>
<path id="Vector_2" d="M0.398438 8.10254H5.37444V24.1255H0.398438V8.10254Z" fill="white"/>
<path id="Vector_3" d="M2.882 0.125C1.291 0.125 0 1.416 0 3.007C0 4.598 1.291 5.916 2.882 5.916C4.473 5.916 5.764 4.598 5.764 3.007C5.763 1.416 4.472 0.125 2.882 0.125V0.125Z" fill="white"/>
</g>
<defs>
<clipPath id="clip0_502_3959">
<rect width="24" height="24" fill="white" transform="translate(0 0.125)"/>
</clipPath>
</defs>
</svg>
