<svg width="24" height="25" viewBox="0 0 24 25" fill="none" xmlns="http://www.w3.org/2000/svg">
<g id="096-twitter" clip-path="url(#clip0_502_3963)">
<path id="Vector" d="M21.533 7.238C22.509 6.545 23.33 5.68 23.999 4.684V4.683C23.106 5.074 22.156 5.334 21.164 5.46C22.184 4.851 22.963 3.894 23.329 2.741C22.378 3.308 21.328 3.708 20.209 3.932C19.306 2.97 18.019 2.375 16.615 2.375C13.891 2.375 11.698 4.586 11.698 7.296C11.698 7.686 11.731 8.061 11.812 8.418C7.72202 8.218 4.10202 6.258 1.67002 3.271C1.24602 4.008 0.996024 4.851 0.996024 5.758C0.996024 7.462 1.87302 8.972 3.18202 9.847C2.39102 9.832 1.61602 9.602 0.959024 9.241V9.295C0.959024 11.686 2.66402 13.672 4.90102 14.13C4.50002 14.24 4.06402 14.292 3.61102 14.292C3.29602 14.292 2.97802 14.274 2.68002 14.208C3.31702 16.156 5.12702 17.589 7.27702 17.636C5.60302 18.945 3.47702 19.734 1.17602 19.734C0.773024 19.734 0.386023 19.716 -0.000976562 19.667C2.17902 21.072 4.76102 21.875 7.54702 21.875C16.23 21.875 21.889 14.631 21.533 7.238Z" fill="white"/>
</g>
<defs>
<clipPath id="clip0_502_3963">
<rect width="24" height="24" fill="white" transform="translate(0 0.125)"/>
</clipPath>
</defs>
</svg>
