<svg width="24" height="25" viewBox="0 0 24 25" fill="none" xmlns="http://www.w3.org/2000/svg">
<g id="097-twoo" clip-path="url(#clip0_502_3965)">
<path id="Vector" d="M10.1151 17.0448C10.1791 16.9908 10.2441 16.9348 10.3041 16.8758C6.96306 20.1538 1.51506 18.6238 0.238063 14.0008V13.9938C-1.47494 7.70383 5.74806 2.92583 10.3021 7.32583C10.3971 7.42683 16.6881 14.1358 16.2881 13.7088H16.3061C17.2451 14.6768 18.6031 14.5708 19.4111 13.7248C20.2801 12.8168 20.3111 11.3348 19.4581 10.4118C18.1111 8.86083 15.4661 10.0198 15.7191 12.3188L14.2051 10.7768L12.4491 9.09783C12.8111 8.37883 13.2861 7.74983 13.8811 7.20583C13.8171 7.26083 13.7521 7.31783 13.6921 7.37483C17.0461 4.08483 22.4901 5.65083 23.7581 10.2538V10.2598C25.4751 16.5488 18.2441 21.3268 13.6941 16.9268C13.6011 16.8268 7.31406 10.0758 7.71206 10.5038L7.70806 10.4888C7.69206 10.4888 7.69206 10.4738 7.69206 10.4738C6.70606 9.45683 5.36906 9.60983 4.58706 10.4428C3.71706 11.3508 3.68706 12.8328 4.54206 13.7418C5.83006 15.2568 8.53206 14.1338 8.27806 11.7888C8.37606 11.8898 11.7671 15.3708 11.5511 15.1498C11.0021 16.2448 10.3881 16.7478 10.1151 17.0448Z" fill="white"/>
</g>
<defs>
<clipPath id="clip0_502_3965">
<rect width="24" height="24" fill="white" transform="translate(0 0.125)"/>
</clipPath>
</defs>
</svg>
