<svg width="64" height="64" viewBox="0 0 64 64" fill="none" xmlns="http://www.w3.org/2000/svg">
<circle cx="32" cy="32" r="32" fill="white" fill-opacity="0.2"/>
<path d="M42.4619 30.4346L44.0633 31.3952C44.1621 31.4543 44.2438 31.538 44.3006 31.6382C44.3573 31.7384 44.3872 31.8516 44.3872 31.9667C44.3872 32.0818 44.3573 32.195 44.3006 32.2952C44.2438 32.3954 44.1621 32.4791 44.0633 32.5382L31.6936 39.96L19.324 32.5382C19.2252 32.4791 19.1434 32.3954 19.0866 32.2952C19.0298 32.195 19 32.0818 19 31.9667C19 31.8516 19.0298 31.7384 19.0866 31.6382C19.1434 31.538 19.2252 31.4543 19.324 31.3952L20.9253 30.4346L31.6936 36.896L42.4619 30.4346ZM42.4619 36.6961L44.0633 37.6566C44.1621 37.7157 44.2438 37.7995 44.3006 37.8997C44.3573 37.9998 44.3872 38.113 44.3872 38.2281C44.3872 38.3433 44.3573 38.4565 44.3006 38.5566C44.2438 38.6568 44.1621 38.7405 44.0633 38.7996L32.3797 45.8098C32.1726 45.9343 31.9354 46 31.6936 46C31.4519 46 31.2147 45.9343 31.0075 45.8098L19.324 38.7996C19.2252 38.7405 19.1434 38.6568 19.0866 38.5566C19.0298 38.4565 19 38.3433 19 38.2281C19 38.113 19.0298 37.9998 19.0866 37.8997C19.1434 37.7995 19.2252 37.7157 19.324 37.6566L20.9253 36.6961L31.6936 43.1574L42.4619 36.6961ZM32.3783 18.1903L44.0633 25.2004C44.1621 25.2595 44.2438 25.3433 44.3006 25.4434C44.3573 25.5436 44.3872 25.6568 44.3872 25.7719C44.3872 25.887 44.3573 26.0002 44.3006 26.1004C44.2438 26.2005 44.1621 26.2843 44.0633 26.3434L31.6936 33.7652L19.324 26.3434C19.2252 26.2843 19.1434 26.2005 19.0866 26.1004C19.0298 26.0002 19 25.887 19 25.7719C19 25.6568 19.0298 25.5436 19.0866 25.4434C19.1434 25.3433 19.2252 25.2595 19.324 25.2004L31.0075 18.1903C31.2147 18.0658 31.4519 18 31.6936 18C31.9354 18 32.1726 18.0658 32.3797 18.1903H32.3783Z" fill="white"/>
</svg>
