<svg width="64" height="64" viewBox="0 0 64 64" fill="none" xmlns="http://www.w3.org/2000/svg">
<circle cx="32" cy="32" r="32" fill="white" fill-opacity="0.2"/>
<g clip-path="url(#clip0_502_3902)">
<path d="M40.0964 38.1475L46 44.0495L44.0495 46L38.1475 40.0964C35.9514 41.8569 33.2198 42.8144 30.4052 42.8104C23.5575 42.8104 18 37.2529 18 30.4052C18 23.5575 23.5575 18 30.4052 18C37.2529 18 42.8104 23.5575 42.8104 30.4052C42.8145 33.2198 41.8569 35.9514 40.0964 38.1475ZM32.0289 25.1358C30.8523 24.7735 29.5884 24.8155 28.4383 25.255C27.2884 25.6945 26.3186 26.5063 25.6835 27.5609C25.0484 28.6155 24.7846 29.8524 24.934 31.0744C25.0835 32.2964 25.6376 33.4331 26.5081 34.3038C27.3786 35.1742 28.5155 35.7283 29.7375 35.8778C30.9594 36.0273 32.1963 35.7634 33.2509 35.1283C34.3055 34.4933 35.1173 33.5234 35.5568 32.3735C35.9963 31.2235 36.0383 29.9594 35.676 28.7828C35.4922 29.1891 35.2127 29.5446 34.8612 29.8191C34.5098 30.0934 34.097 30.2786 33.6585 30.3584C33.2198 30.4383 32.7682 30.4106 32.3427 30.2777C31.9171 30.1447 31.5301 29.9105 31.2149 29.5952C30.8997 29.2799 30.6656 28.8928 30.5329 28.4672C30.4001 28.0416 30.3726 27.59 30.4526 27.1514C30.5327 26.7128 30.7178 26.3002 30.9924 25.9488C31.267 25.5975 31.6226 25.3181 32.0289 25.1344V25.1358Z" fill="white"/>
</g>
<defs>
<clipPath id="clip0_502_3902">
<rect width="28" height="28" fill="white" transform="translate(18 18)"/>
</clipPath>
</defs>
</svg>
