<svg width="100" height="100" viewBox="0 0 100 100" fill="none" xmlns="http://www.w3.org/2000/svg">
<path fill-rule="evenodd" clip-rule="evenodd" d="M100 50C100 77.6142 77.6142 100 50 100C22.3858 100 0 77.6142 0 50C0 22.3858 22.3858 0 50 0C77.6142 0 100 22.3858 100 50Z" fill="#4F3DFE"/>
<path d="M37.744 55L42.192 44.28H39.312L36.144 52.568H35.984L32.768 44.28H29.872L34.32 55H37.744ZM45.1025 46.168V44.28H42.7025V46.168H45.1025ZM45.1025 55V46.984H42.7025V55H45.1025ZM50.6148 55.16C53.1588 55.16 54.8548 53.944 54.8548 52.2V52.024H52.4548V52.184C52.4548 52.872 51.9588 53.24 50.5348 53.24C48.9828 53.24 48.4068 52.712 48.3428 51.48H54.8708C54.9028 51.208 54.9348 51 54.9348 50.712C54.9348 48.2 53.1908 46.824 50.5668 46.824C47.9268 46.824 46.1188 48.44 46.1188 51C46.1188 53.848 47.9428 55.16 50.6148 55.16ZM50.5188 48.696C51.9268 48.696 52.5668 49.16 52.6308 50.216H48.3748C48.4868 49.176 49.0948 48.696 50.5188 48.696ZM60.4965 55L61.8885 51.144L62.4965 48.936H62.6725L63.2645 51.144L64.6405 55H67.6325L69.9045 46.984H67.4565L66.5285 50.648L66.1765 53.144H66.0165L65.3765 50.408L64.1765 46.984H61.0885L59.8725 50.408L59.2325 53.144H59.0725L58.7365 50.648L57.7925 46.984H55.3125L57.5045 55H60.4965Z" fill="white"/>
</svg>
